<svg width="34" height="27" viewBox="0 0 34 27" fill="none" xmlns="http://www.w3.org/2000/svg">
<mask id="mask0_131_82" style="mask-type:alpha" maskUnits="userSpaceOnUse" x="0" y="0" width="27" height="27">
<path d="M8.70117 21.3633C8.70117 21.2578 8.5957 21.1523 8.4375 21.1523C8.2793 21.1523 8.17383 21.2578 8.17383 21.3633C8.17383 21.4688 8.2793 21.5742 8.4375 21.5215C8.5957 21.5215 8.70117 21.4688 8.70117 21.3633ZM7.06641 21.0996C7.06641 21.2051 7.17188 21.3633 7.33008 21.3633C7.43555 21.416 7.59375 21.3633 7.64648 21.2578C7.64648 21.1523 7.59375 21.0469 7.43555 20.9941C7.27734 20.9414 7.11914 20.9941 7.06641 21.0996ZM9.43945 21.0469C9.28125 21.0469 9.17578 21.1523 9.17578 21.3105C9.17578 21.416 9.33398 21.4688 9.49219 21.416C9.65039 21.3633 9.75586 21.3105 9.70312 21.2051C9.70312 21.0996 9.54492 20.9941 9.43945 21.0469ZM12.8672 0.796875C5.58984 0.796875 0 6.38672 0 13.6641C0 19.5176 3.63867 24.5273 8.91211 26.3203C9.59766 26.4258 9.80859 26.0039 9.80859 25.6875C9.80859 25.3184 9.80859 23.5254 9.80859 22.418C9.80859 22.418 6.11719 23.209 5.32617 20.8359C5.32617 20.8359 4.74609 19.3066 3.90234 18.9375C3.90234 18.9375 2.68945 18.0938 3.95508 18.0938C3.95508 18.0938 5.27344 18.1992 6.01172 19.4648C7.17188 21.5215 9.07031 20.9414 9.86133 20.5723C9.9668 19.7285 10.2832 19.1484 10.7051 18.7793C7.75195 18.4629 4.74609 18.041 4.74609 12.9785C4.74609 11.502 5.16797 10.8164 6.01172 9.86719C5.85352 9.49805 5.43164 8.12695 6.16992 6.28125C7.22461 5.96484 9.80859 7.70508 9.80859 7.70508C10.8633 7.38867 11.9707 7.2832 13.0781 7.2832C14.2383 7.2832 15.3457 7.38867 16.4004 7.70508C16.4004 7.70508 18.9316 5.91211 20.0391 6.28125C20.7773 8.12695 20.3027 9.49805 20.1973 9.86719C21.041 10.8164 21.5684 11.502 21.5684 12.9785C21.5684 18.041 18.457 18.4629 15.5039 18.7793C15.9785 19.2012 16.4004 19.9922 16.4004 21.2578C16.4004 22.998 16.3477 25.2129 16.3477 25.6348C16.3477 26.0039 16.6113 26.4258 17.2969 26.2676C22.5703 24.5273 26.1562 19.5176 26.1562 13.6641C26.1562 6.38672 20.1973 0.796875 12.8672 0.796875ZM5.11523 18.9902C5.00977 19.043 5.0625 19.2012 5.11523 19.3066C5.2207 19.3594 5.32617 19.4121 5.43164 19.3594C5.48438 19.3066 5.48438 19.1484 5.37891 19.043C5.27344 18.9902 5.16797 18.9375 5.11523 18.9902ZM4.53516 18.5684C4.48242 18.6738 4.53516 18.7266 4.64062 18.7793C4.74609 18.832 4.85156 18.832 4.9043 18.7266C4.9043 18.6738 4.85156 18.6211 4.74609 18.5684C4.64062 18.5156 4.58789 18.5156 4.53516 18.5684ZM6.22266 20.4668C6.16992 20.5195 6.16992 20.6777 6.32812 20.7832C6.43359 20.8887 6.5918 20.9414 6.64453 20.8359C6.69727 20.7832 6.69727 20.625 6.5918 20.5195C6.48633 20.4141 6.32812 20.3613 6.22266 20.4668ZM5.64258 19.6758C5.53711 19.7285 5.53711 19.8867 5.64258 19.9922C5.74805 20.0977 5.85352 20.1504 5.95898 20.0977C6.01172 20.0449 6.01172 19.8867 5.95898 19.7812C5.85352 19.6758 5.74805 19.623 5.64258 19.6758Z" fill="black"/>
</mask>
<g mask="url(#mask0_131_82)">
<rect y="-1" width="26" height="30" fill="#6A59D1"/>
</g>
</svg>
