   <svg width="330" height="361" viewBox="0 0 330 361" fill="none" xmlns="http://www.w3.org/2000/svg">
<path d="M222.319 275.235L214.313 242.108L247.774 252.574L222.319 275.235Z" fill="#D1A2E7" fill-opacity="0.3"/>
<path d="M100.232 62.4466L125.097 31.6289L138.552 72.4245L100.232 62.4466Z" fill="#D1A2E7" fill-opacity="0.3"/>
<path d="M261.816 353.609L254.409 327.272L285.023 339.119L261.816 353.609Z" fill="#D1A2E7" fill-opacity="0.3"/>
<path d="M26.9202 134.743L50.3534 111.022L59.8673 139.868L26.9202 134.743Z" fill="#D1A2E7" fill-opacity="0.3"/>
<path d="M64.4929 273.051L87.926 249.33L97.4399 278.176L64.4929 273.051Z" fill="#D1A2E7" fill-opacity="0.3"/>
<path d="M248.176 37.2409L277.166 6.78561L289.597 44.4735L248.176 37.2409Z" fill="#D1A2E7" fill-opacity="0.3"/>
<path d="M226.423 163.843L238.794 129.855L262.043 157.562L226.423 163.843Z" fill="#D1A2E7" fill-opacity="0.3"/>
<circle cx="300" cy="113" r="8" fill="#D1A2E7" fill-opacity="0.3"/>
<circle cx="159" cy="240" r="8" fill="#D1A2E7" fill-opacity="0.3"/>
<circle cx="171" cy="10" r="8" fill="#D1A2E7" fill-opacity="0.3"/>
<ellipse cx="215.5" cy="72" rx="12.5" ry="14" fill="#D1A2E7" fill-opacity="0.3"/>
<ellipse cx="138" cy="165.5" rx="20" ry="21.5" fill="#D1A2E7" fill-opacity="0.3"/>
<circle cx="163.5" cy="317.5" r="13.5" fill="#D1A2E7" fill-opacity="0.3"/>
<circle cx="316.5" cy="200.5" r="13.5" fill="#D1A2E7" fill-opacity="0.3"/>
<path d="M108.485 330.788C108.368 329.968 107.608 329.398 106.788 329.515L93.4236 331.424C92.6034 331.541 92.0336 332.301 92.1508 333.121C92.2679 333.941 93.0277 334.511 93.8478 334.394L105.727 332.697L107.424 344.576C107.541 345.397 108.301 345.966 109.121 345.849C109.941 345.732 110.511 344.972 110.394 344.152L108.485 330.788ZM93.2 351.9L108.2 331.9L105.8 330.1L90.8 350.1L93.2 351.9Z" fill="#D1A2E7" fill-opacity="0.3"/>
<path d="M293.759 148.519C292.941 148.653 292.386 149.423 292.519 150.241L294.689 163.566C294.822 164.383 295.592 164.938 296.41 164.805C297.228 164.672 297.783 163.901 297.65 163.084L295.722 151.239L307.566 149.311C308.383 149.178 308.938 148.408 308.805 147.59C308.672 146.772 307.901 146.217 307.084 146.35L293.759 148.519ZM319.876 166.783L294.876 148.783L293.124 151.217L318.124 169.217L319.876 166.783Z" fill="#D1A2E7" fill-opacity="0.3"/>
<path d="M282.759 280.519C281.941 280.653 281.386 281.423 281.519 282.241L283.689 295.566C283.822 296.383 284.592 296.938 285.41 296.805C286.228 296.672 286.783 295.901 286.65 295.084L284.722 283.239L296.566 281.311C297.383 281.178 297.938 280.408 297.805 279.59C297.672 278.772 296.901 278.217 296.084 278.35L282.759 280.519ZM308.876 298.783L283.876 280.783L282.124 283.217L307.124 301.217L308.876 298.783Z" fill="#D1A2E7" fill-opacity="0.3"/>
<path d="M46.7317 189.524C45.9166 189.672 45.376 190.453 45.5242 191.268L47.9391 204.551C48.0873 205.366 48.8682 205.906 49.6833 205.758C50.4983 205.61 51.039 204.829 50.8908 204.014L48.7441 192.207L60.5506 190.061C61.3656 189.913 61.9062 189.132 61.758 188.317C61.6099 187.502 60.829 186.961 60.0139 187.109L46.7317 189.524ZM60.8538 198.767L47.8538 189.767L46.1462 192.233L59.1462 201.233L60.8538 198.767Z" fill="#D1A2E7" fill-opacity="0.3"/>
<path d="M107.136 114.494C107.961 114.419 108.569 113.689 108.494 112.864L107.272 99.4196C107.197 98.5946 106.467 97.9866 105.642 98.0616C104.817 98.1366 104.209 98.8662 104.284 99.6912L105.37 111.642L93.4196 112.728C92.5946 112.803 91.9866 113.533 92.0616 114.358C92.1366 115.183 92.8662 115.791 93.6912 115.716L107.136 114.494ZM88.0397 99.1523L106.04 114.152L107.96 111.848L89.9603 96.8477L88.0397 99.1523Z" fill="#D1A2E7" fill-opacity="0.3"/>
<path d="M213.136 211.494C213.961 211.419 214.569 210.689 214.494 209.864L213.272 196.42C213.197 195.595 212.467 194.987 211.642 195.062C210.817 195.137 210.209 195.866 210.284 196.691L211.37 208.642L199.42 209.728C198.595 209.803 197.987 210.533 198.062 211.358C198.137 212.183 198.866 212.791 199.691 212.716L213.136 211.494ZM194.04 196.152L212.04 211.152L213.96 208.848L195.96 193.848L194.04 196.152Z" fill="#D1A2E7" fill-opacity="0.3"/>
<path d="M36.1358 332.494C36.9608 332.419 37.5688 331.689 37.4938 330.864L36.2716 317.42C36.1966 316.595 35.467 315.987 34.642 316.062C33.8169 316.137 33.2089 316.866 33.2839 317.691L34.3704 329.642L22.4196 330.728C21.5946 330.803 20.9866 331.533 21.0616 332.358C21.1366 333.183 21.8662 333.791 22.6912 333.716L36.1358 332.494ZM17.0397 317.152L35.0397 332.152L36.9603 329.848L18.9603 314.848L17.0397 317.152Z" fill="#D1A2E7" fill-opacity="0.3"/>
<path d="M108.485 330.788C108.368 329.968 107.608 329.398 106.788 329.515L93.4236 331.424C92.6034 331.541 92.0336 332.301 92.1508 333.121C92.2679 333.941 93.0277 334.511 93.8478 334.394L105.727 332.697L107.424 344.576C107.541 345.397 108.301 345.966 109.121 345.849C109.941 345.732 110.511 344.972 110.394 344.152L108.485 330.788ZM93.2 351.9L108.2 331.9L105.8 330.1L90.8 350.1L93.2 351.9Z" fill="#D1A2E7" fill-opacity="0.3"/>
<circle cx="18" cy="244" r="18" fill="#D1A2E7" fill-opacity="0.3"/>
</svg>
