<svg width="309" height="303" viewBox="0 0 309 303" fill="none" xmlns="http://www.w3.org/2000/svg">
<path d="M201.319 276.235L193.313 243.108L226.774 253.574L201.319 276.235Z" fill="#D1A2E7" fill-opacity="0.3"/>
<path d="M79.2316 63.4466L104.097 32.6289L117.552 73.4245L79.2316 63.4466Z" fill="#D1A2E7" fill-opacity="0.3"/>
<path d="M5.92028 135.743L29.3535 112.022L38.8674 140.868L5.92028 135.743Z" fill="#D1A2E7" fill-opacity="0.3"/>
<path d="M43.4929 274.051L66.926 250.33L76.4399 279.176L43.4929 274.051Z" fill="#D1A2E7" fill-opacity="0.3"/>
<path d="M227.177 37.2409L256.166 6.78561L268.597 44.4735L227.177 37.2409Z" fill="#D1A2E7" fill-opacity="0.3"/>
<path d="M205.423 164.843L217.794 130.855L241.043 158.562L205.423 164.843Z" fill="#D1A2E7" fill-opacity="0.3"/>
<circle cx="279" cy="114" r="8" fill="#D1A2E7" fill-opacity="0.3"/>
<circle cx="138" cy="241" r="8" fill="#D1A2E7" fill-opacity="0.3"/>
<circle cx="150" cy="11" r="8" fill="#D1A2E7" fill-opacity="0.3"/>
<ellipse cx="194.5" cy="73" rx="12.5" ry="14" fill="#D1A2E7" fill-opacity="0.3"/>
<ellipse cx="18.5" cy="23" rx="12.5" ry="12" fill="#D1A2E7" fill-opacity="0.3"/>
<ellipse cx="117" cy="166.5" rx="20" ry="21.5" fill="#D1A2E7" fill-opacity="0.3"/>
<circle cx="295.5" cy="201.5" r="13.5" fill="#D1A2E7" fill-opacity="0.3"/>
<path d="M272.759 149.519C271.941 149.653 271.386 150.423 271.519 151.241L273.689 164.566C273.822 165.383 274.592 165.938 275.41 165.805C276.228 165.672 276.783 164.901 276.65 164.084L274.722 152.239L286.566 150.311C287.383 150.178 287.938 149.408 287.805 148.59C287.672 147.772 286.901 147.217 286.084 147.35L272.759 149.519ZM298.876 167.783L273.876 149.783L272.124 152.217L297.124 170.217L298.876 167.783Z" fill="#D1A2E7" fill-opacity="0.3"/>
<path d="M261.759 281.519C260.941 281.653 260.386 282.423 260.519 283.241L262.689 296.566C262.822 297.383 263.592 297.938 264.41 297.805C265.228 297.672 265.783 296.901 265.65 296.084L263.722 284.239L275.566 282.311C276.383 282.178 276.938 281.408 276.805 280.59C276.672 279.772 275.901 279.217 275.084 279.35L261.759 281.519ZM287.876 299.783L262.876 281.783L261.124 284.217L286.124 302.217L287.876 299.783Z" fill="#D1A2E7" fill-opacity="0.3"/>
<path d="M25.7317 190.524C24.9166 190.672 24.376 191.453 24.5242 192.268L26.9391 205.551C27.0873 206.366 27.8682 206.906 28.6833 206.758C29.4983 206.61 30.039 205.829 29.8908 205.014L27.7441 193.207L39.5506 191.061C40.3656 190.913 40.9062 190.132 40.758 189.317C40.6099 188.502 39.829 187.961 39.0139 188.109L25.7317 190.524ZM39.8538 199.767L26.8538 190.767L25.1462 193.233L38.1462 202.233L39.8538 199.767Z" fill="#D1A2E7" fill-opacity="0.3"/>
<path d="M86.1358 115.494C86.9608 115.419 87.5688 114.689 87.4938 113.864L86.2716 100.42C86.1966 99.5946 85.467 98.9866 84.642 99.0616C83.8169 99.1366 83.2089 99.8662 83.2839 100.691L84.3704 112.642L72.4196 113.728C71.5946 113.803 70.9866 114.533 71.0616 115.358C71.1366 116.183 71.8662 116.791 72.6912 116.716L86.1358 115.494ZM67.0397 100.152L85.0397 115.152L86.9603 112.848L68.9603 97.8477L67.0397 100.152Z" fill="#D1A2E7" fill-opacity="0.3"/>
<path d="M192.136 212.494C192.961 212.419 193.569 211.689 193.494 210.864L192.272 197.42C192.197 196.595 191.467 195.987 190.642 196.062C189.817 196.137 189.209 196.866 189.284 197.691L190.37 209.642L178.42 210.728C177.595 210.803 176.987 211.533 177.062 212.358C177.137 213.183 177.866 213.791 178.691 213.716L192.136 212.494ZM173.04 197.152L191.04 212.152L192.96 209.848L174.96 194.848L173.04 197.152Z" fill="#D1A2E7" fill-opacity="0.3"/>
</svg>
