<svg width="386" height="368" viewBox="0 0 386 368" fill="none" xmlns="http://www.w3.org/2000/svg">
<path d="M278.319 282.235L270.313 249.108L303.774 259.574L278.319 282.235Z" fill="#D1A2E7" fill-opacity="0.3"/>
<path d="M161.769 69.4466L186.634 38.6289L200.089 79.4245L161.769 69.4466Z" fill="#D1A2E7" fill-opacity="0.3"/>
<path d="M317.817 360.609L310.41 334.272L341.023 346.119L317.817 360.609Z" fill="#D1A2E7" fill-opacity="0.3"/>
<path d="M82.9208 141.743L106.354 118.022L115.868 146.868L82.9208 141.743Z" fill="#D1A2E7" fill-opacity="0.3"/>
<path d="M77.4935 29.0511L100.927 5.33048L110.441 34.1763L77.4935 29.0511Z" fill="#D1A2E7" fill-opacity="0.3"/>
<path d="M120.493 280.051L143.927 256.33L153.441 285.176L120.493 280.051Z" fill="#D1A2E7" fill-opacity="0.3"/>
<path d="M5.49285 194.051L28.926 170.33L38.4399 199.176L5.49285 194.051Z" fill="#D1A2E7" fill-opacity="0.3"/>
<path d="M304.177 44.2409L333.166 13.7856L345.597 51.4735L304.177 44.2409Z" fill="#D1A2E7" fill-opacity="0.3"/>
<path d="M282.423 170.843L294.794 136.855L318.043 164.562L282.423 170.843Z" fill="#D1A2E7" fill-opacity="0.3"/>
<circle cx="364" cy="105" r="8" fill="#D1A2E7" fill-opacity="0.3"/>
<circle cx="215.001" cy="247" r="8" fill="#D1A2E7" fill-opacity="0.3"/>
<circle cx="8" cy="130" r="8" fill="#D1A2E7" fill-opacity="0.3"/>
<circle cx="237.001" cy="25" r="8" fill="#D1A2E7" fill-opacity="0.3"/>
<circle cx="153.001" cy="33" r="8" fill="#D1A2E7" fill-opacity="0.3"/>
<ellipse cx="271.5" cy="79" rx="12.5" ry="14" fill="#D1A2E7" fill-opacity="0.3"/>
<ellipse cx="86.5005" cy="77" rx="12.5" ry="14" fill="#D1A2E7" fill-opacity="0.3"/>
<ellipse cx="68.5005" cy="172" rx="12.5" ry="14" fill="#D1A2E7" fill-opacity="0.3"/>
<ellipse cx="194.001" cy="172.5" rx="20" ry="21.5" fill="#D1A2E7" fill-opacity="0.3"/>
<circle cx="219.501" cy="324.5" r="13.5" fill="#D1A2E7" fill-opacity="0.3"/>
<circle cx="372.5" cy="207.5" r="13.5" fill="#D1A2E7" fill-opacity="0.3"/>
<path d="M164.486 337.788C164.368 336.968 163.609 336.398 162.788 336.515L149.424 338.424C148.604 338.541 148.034 339.301 148.151 340.121C148.269 340.941 149.028 341.511 149.848 341.394L161.728 339.697L163.425 351.576C163.542 352.397 164.302 352.966 165.122 352.849C165.942 352.732 166.512 351.972 166.395 351.152L164.486 337.788ZM149.201 358.9L164.201 338.9L161.801 337.1L146.801 357.1L149.201 358.9Z" fill="#D1A2E7" fill-opacity="0.3"/>
<path d="M344.759 146.519C343.941 146.653 343.386 147.423 343.519 148.241L345.689 161.566C345.822 162.383 346.592 162.938 347.41 162.805C348.228 162.672 348.783 161.901 348.65 161.084L346.722 149.239L358.566 147.311C359.383 147.178 359.938 146.408 359.805 145.59C359.672 144.772 358.901 144.217 358.084 144.35L344.759 146.519ZM370.876 164.783L345.876 146.783L344.124 149.217L369.124 167.217L370.876 164.783Z" fill="#D1A2E7" fill-opacity="0.3"/>
<path d="M219.76 111.519C218.942 111.653 218.387 112.423 218.52 113.241L220.689 126.566C220.822 127.383 221.593 127.938 222.411 127.805C223.228 127.672 223.783 126.901 223.65 126.084L221.722 114.239L233.566 112.311C234.384 112.178 234.939 111.408 234.806 110.59C234.673 109.772 233.902 109.217 233.084 109.35L219.76 111.519ZM245.877 129.783L220.877 111.783L219.124 114.217L244.124 132.217L245.877 129.783Z" fill="#D1A2E7" fill-opacity="0.3"/>
<path d="M338.759 287.519C337.941 287.653 337.386 288.423 337.519 289.241L339.689 302.566C339.822 303.383 340.592 303.938 341.41 303.805C342.228 303.672 342.783 302.901 342.65 302.084L340.722 290.239L352.566 288.311C353.383 288.178 353.938 287.408 353.805 286.59C353.672 285.772 352.901 285.217 352.084 285.35L338.759 287.519ZM364.876 305.783L339.876 287.783L338.124 290.217L363.124 308.217L364.876 305.783Z" fill="#D1A2E7" fill-opacity="0.3"/>
<path d="M102.732 196.524C101.917 196.672 101.377 197.453 101.525 198.268L103.94 211.551C104.088 212.366 104.869 212.906 105.684 212.758C106.499 212.61 107.04 211.829 106.891 211.014L104.745 199.207L116.551 197.061C117.366 196.913 117.907 196.132 117.759 195.317C117.61 194.502 116.83 193.961 116.015 194.109L102.732 196.524ZM116.854 205.767L103.854 196.767L102.147 199.233L115.147 208.233L116.854 205.767Z" fill="#D1A2E7" fill-opacity="0.3"/>
<path d="M102.732 196.524C101.917 196.672 101.377 197.453 101.525 198.268L103.94 211.551C104.088 212.366 104.869 212.906 105.684 212.758C106.499 212.61 107.04 211.829 106.891 211.014L104.745 199.207L116.551 197.061C117.366 196.913 117.907 196.132 117.759 195.317C117.61 194.502 116.83 193.961 116.015 194.109L102.732 196.524ZM116.854 205.767L103.854 196.767L102.147 199.233L115.147 208.233L116.854 205.767Z" fill="#D1A2E7" fill-opacity="0.3"/>
<path d="M35.7317 98.5242C34.9166 98.6724 34.376 99.4533 34.5242 100.268L36.9391 113.551C37.0873 114.366 37.8682 114.906 38.6833 114.758C39.4983 114.61 40.039 113.829 39.8908 113.014L37.7441 101.207L49.5506 99.0609C50.3656 98.9127 50.9062 98.1318 50.758 97.3167C50.6099 96.5017 49.829 95.961 49.0139 96.1092L35.7317 98.5242ZM49.8538 107.767L36.8538 98.7667L35.1462 101.233L48.1462 110.233L49.8538 107.767Z" fill="#D1A2E7" fill-opacity="0.3"/>
<path d="M163.136 121.494C163.961 121.419 164.569 120.689 164.494 119.864L163.272 106.42C163.197 105.595 162.468 104.987 161.643 105.062C160.818 105.137 160.21 105.866 160.285 106.691L161.371 118.642L149.42 119.728C148.595 119.803 147.987 120.533 148.062 121.358C148.137 122.183 148.867 122.791 149.692 122.716L163.136 121.494ZM144.04 106.152L162.04 121.152L163.961 118.848L145.961 103.848L144.04 106.152Z" fill="#D1A2E7" fill-opacity="0.3"/>
<path d="M163.136 121.494C163.961 121.419 164.569 120.689 164.494 119.864L163.272 106.42C163.197 105.595 162.468 104.987 161.643 105.062C160.818 105.137 160.21 105.866 160.285 106.691L161.371 118.642L149.42 119.728C148.595 119.803 147.987 120.533 148.062 121.358C148.137 122.183 148.867 122.791 149.692 122.716L163.136 121.494ZM144.04 106.152L162.04 121.152L163.961 118.848L145.961 103.848L144.04 106.152Z" fill="#D1A2E7" fill-opacity="0.3"/>
<path d="M269.136 218.494C269.961 218.419 270.569 217.689 270.494 216.864L269.272 203.42C269.197 202.595 268.467 201.987 267.642 202.062C266.817 202.137 266.209 202.866 266.284 203.691L267.371 215.642L255.42 216.728C254.595 216.803 253.987 217.533 254.062 218.358C254.137 219.183 254.867 219.791 255.692 219.716L269.136 218.494ZM250.04 203.152L268.04 218.152L269.961 215.848L251.961 200.848L250.04 203.152Z" fill="#D1A2E7" fill-opacity="0.3"/>
<path d="M92.1364 339.494C92.9614 339.419 93.5694 338.689 93.4944 337.864L92.2722 324.42C92.1972 323.595 91.4675 322.987 90.6425 323.062C89.8175 323.137 89.2095 323.866 89.2845 324.691L90.3709 336.642L78.4202 337.728C77.5952 337.803 76.9871 338.533 77.0622 339.358C77.1372 340.183 77.8668 340.791 78.6918 340.716L92.1364 339.494ZM73.0403 324.152L91.0403 339.152L92.9608 336.848L74.9608 321.848L73.0403 324.152Z" fill="#D1A2E7" fill-opacity="0.3"/>
<path d="M164.486 337.788C164.368 336.968 163.609 336.398 162.788 336.515L149.424 338.424C148.604 338.541 148.034 339.301 148.151 340.121C148.269 340.941 149.028 341.511 149.848 341.394L161.728 339.697L163.425 351.576C163.542 352.397 164.302 352.966 165.122 352.849C165.942 352.732 166.512 351.972 166.395 351.152L164.486 337.788ZM149.201 358.9L164.201 338.9L161.801 337.1L146.801 357.1L149.201 358.9Z" fill="#D1A2E7" fill-opacity="0.3"/>
<path d="M180.485 220.788C180.368 219.968 179.608 219.398 178.788 219.515L165.424 221.424C164.603 221.541 164.034 222.301 164.151 223.121C164.268 223.941 165.028 224.511 165.848 224.394L177.727 222.697L179.424 234.576C179.541 235.397 180.301 235.966 181.121 235.849C181.941 235.732 182.511 234.972 182.394 234.152L180.485 220.788ZM165.2 241.9L180.2 221.9L177.8 220.1L162.8 240.1L165.2 241.9Z" fill="#D1A2E7" fill-opacity="0.3"/>
<path d="M78.5839 257C78.5839 266.941 70.525 275 60.5839 275C50.6428 275 42.5839 266.941 42.5839 257C42.5839 247.059 50.6428 239 60.5839 239C70.525 239 78.5839 247.059 78.5839 257Z" fill="#D1A2E7" fill-opacity="0.3"/>
</svg>
