<svg width="25" height="25" viewBox="0 0 25 25" fill="none" xmlns="http://www.w3.org/2000/svg">
<mask id="mask0_140_139" style="mask-type:alpha" maskUnits="userSpaceOnUse" x="0" y="0" width="25" height="25">
<path d="M22.5859 10.6953C22.0391 10.1484 21.2188 10.2031 20.6719 10.6953L14.4375 17.3125V1.5625C14.4375 0.851562 13.8359 0.25 13.125 0.25H11.375C10.6094 0.25 10.0625 0.851562 10.0625 1.5625V17.3125L3.77344 10.6953C3.22656 10.2031 2.40625 10.1484 1.85938 10.6953L0.65625 11.8984C0.164062 12.3906 0.164062 13.2656 0.65625 13.7578L11.3203 24.3672C11.8125 24.9141 12.6328 24.9141 13.1797 24.3672L23.7891 13.7578C24.2812 13.2656 24.2812 12.4453 23.7891 11.8984L22.5859 10.6953Z" fill="black"/>
</mask>
<g mask="url(#mask0_140_139)">
<rect x="-2" y="-6" width="34" height="39" fill="#6A59D1"/>
</g>
</svg>
